<svg width="30" height="30" viewBox="0 0 30 30" fill="none" xmlns="http://www.w3.org/2000/svg">
<path fill-rule="evenodd" clip-rule="evenodd" d="M11.6495 1.49821C12.0716 1.02683 12.5884 0.649748 13.166 0.391591C13.7437 0.133434 14.3693 0 15.002 0C15.6348 0 16.2604 0.133434 16.8381 0.391591C17.4157 0.649748 17.9325 1.02683 18.3545 1.49821L19.4045 2.67121C19.5546 2.83907 19.7405 2.971 19.9485 3.05721C20.1565 3.14342 20.3812 3.1817 20.606 3.16921L22.181 3.08221C22.8126 3.04752 23.4444 3.14637 24.0352 3.37231C24.626 3.59825 25.1625 3.94619 25.6098 4.39346C26.0571 4.84072 26.405 5.37725 26.6309 5.96805C26.8569 6.55884 26.9557 7.19064 26.921 7.82221L26.834 9.39721C26.8218 9.62177 26.8602 9.84621 26.9464 10.0539C27.0326 10.2616 27.1644 10.4473 27.332 10.5972L28.5065 11.6472C28.9782 12.0693 29.3555 12.5861 29.6138 13.1639C29.8721 13.7417 30.0056 14.3675 30.0056 15.0005C30.0056 15.6334 29.8721 16.2592 29.6138 16.837C29.3555 17.4148 28.9782 17.9316 28.5065 18.3537L27.332 19.4037C27.1642 19.5538 27.0323 19.7397 26.9461 19.9477C26.8598 20.1557 26.8216 20.3804 26.834 20.6052L26.921 22.1802C26.9557 22.8118 26.8569 23.4436 26.6309 24.0344C26.405 24.6252 26.0571 25.1617 25.6098 25.609C25.1625 26.0562 24.626 26.4042 24.0352 26.6301C23.4444 26.856 22.8126 26.9549 22.181 26.9202L20.606 26.8332C20.3815 26.821 20.157 26.8593 19.9493 26.9455C19.7416 27.0317 19.5559 27.1636 19.406 27.3312L18.356 28.5057C17.934 28.9773 17.4171 29.3546 16.8393 29.6129C16.2615 29.8712 15.6357 30.0048 15.0028 30.0048C14.3699 30.0048 13.7441 29.8712 13.1663 29.6129C12.5885 29.3546 12.0716 28.9773 11.6495 28.5057L10.5995 27.3312C10.4495 27.1633 10.2636 27.0314 10.0556 26.9452C9.84759 26.859 9.62285 26.8207 9.39805 26.8332L7.82305 26.9202C7.19147 26.9549 6.55968 26.856 5.96889 26.6301C5.37809 26.4042 4.84156 26.0562 4.3943 25.609C3.94703 25.1617 3.59908 24.6252 3.37315 24.0344C3.14721 23.4436 3.04836 22.8118 3.08305 22.1802L3.17005 20.6052C3.18231 20.3807 3.14391 20.1562 3.05771 19.9485C2.97151 19.7408 2.8397 19.5551 2.67205 19.4052L1.49905 18.3552C1.02742 17.9331 0.650127 17.4163 0.39182 16.8385C0.133513 16.2607 0 15.6349 0 15.002C0 14.369 0.133513 13.7432 0.39182 13.1654C0.650127 12.5876 1.02742 12.0708 1.49905 11.6487L2.67205 10.5987C2.83991 10.4487 2.97183 10.2627 3.05804 10.0547C3.14425 9.84675 3.18253 9.62202 3.17005 9.39721L3.08305 7.82221C3.04836 7.19064 3.14721 6.55884 3.37315 5.96805C3.59908 5.37725 3.94703 4.84072 4.3943 4.39346C4.84156 3.94619 5.37809 3.59825 5.96889 3.37231C6.55968 3.14637 7.19147 3.04752 7.82305 3.08221L9.39805 3.16921C9.62261 3.18147 9.84705 3.14308 10.0548 3.05687C10.2625 2.97067 10.4482 2.83887 10.598 2.67121L11.6495 1.49821ZM20.5625 9.44071C20.8438 9.722 21.0017 10.1035 21.0017 10.5012C21.0017 10.899 20.8438 11.2804 20.5625 11.5617L11.5625 20.5617C11.2796 20.8349 10.9007 20.9861 10.5074 20.9827C10.1142 20.9793 9.73793 20.8216 9.45982 20.5434C9.18171 20.2653 9.02395 19.8891 9.02054 19.4958C9.01712 19.1025 9.16831 18.7236 9.44155 18.4407L18.4415 9.44071C18.7228 9.1595 19.1043 9.00153 19.502 9.00153C19.8998 9.00153 20.2813 9.1595 20.5625 9.44071ZM11.252 9.00121C10.6553 9.00121 10.083 9.23826 9.66106 9.66022C9.2391 10.0822 9.00205 10.6545 9.00205 11.2512V11.2662C9.00205 11.8629 9.2391 12.4352 9.66106 12.8572C10.083 13.2792 10.6553 13.5162 11.252 13.5162H11.267C11.8638 13.5162 12.4361 13.2792 12.858 12.8572C13.28 12.4352 13.517 11.8629 13.517 11.2662V11.2512C13.517 10.6545 13.28 10.0822 12.858 9.66022C12.4361 9.23826 11.8638 9.00121 11.267 9.00121H11.252ZM18.752 16.5012C18.1553 16.5012 17.583 16.7383 17.1611 17.1602C16.7391 17.5822 16.502 18.1545 16.502 18.7512V18.7662C16.502 19.3629 16.7391 19.9352 17.1611 20.3572C17.583 20.7792 18.1553 21.0162 18.752 21.0162H18.767C19.3638 21.0162 19.9361 20.7792 20.358 20.3572C20.78 19.9352 21.017 19.3629 21.017 18.7662V18.7512C21.017 18.1545 20.78 17.5822 20.358 17.1602C19.9361 16.7383 19.3638 16.5012 18.767 16.5012H18.752Z" fill="#BC7428"/>
</svg>
