<svg width="30" height="30" viewBox="0 0 30 30" fill="none" xmlns="http://www.w3.org/2000/svg">
<path fill-rule="evenodd" clip-rule="evenodd" d="M4.386 21.3938C6.55267 21.5181 10.0247 21.6501 15 21.6501C19.9753 21.6501 23.4467 21.5181 25.614 21.3938C27.7393 21.2722 29.514 19.6548 29.73 17.3599C29.8747 15.8234 30 13.6696 30 10.825C30 7.98049 29.8747 5.82666 29.73 4.2902C29.514 1.9946 27.7393 0.377829 25.614 0.256309C23.4473 0.131996 19.9753 0 15 0C10.0247 0 6.55333 0.131996 4.386 0.256309C2.26067 0.377829 0.486 1.9953 0.27 4.2902C0.125333 5.82666 0 7.98049 0 10.825C0 13.6696 0.125333 15.8234 0.27 17.3599C0.486 19.6555 2.26067 21.2722 4.386 21.3938ZM15 4.15891C15.2652 4.15891 15.5196 4.26928 15.7071 4.46574C15.8946 4.6622 16 4.92865 16 5.20649V5.84691C16.4589 5.93322 16.9065 6.07525 17.334 6.27014C17.6633 6.42099 17.9867 6.59628 18.2733 6.82466C18.7027 7.16827 18.7893 7.84431 18.4607 8.29407C18.3003 8.51352 18.0637 8.65772 17.8024 8.69526C17.541 8.73281 17.2761 8.66065 17.0653 8.49451C16.4807 8.04893 15.7187 7.85059 15 7.85059C14.5207 7.85059 14.054 8.00703 13.7293 8.2389C13.3967 8.47565 13.3333 8.69005 13.3333 8.79761C13.3333 9.04973 13.4373 9.18521 13.6447 9.30324C14.0553 9.5372 14.5387 9.63428 15.0027 9.72716L15.2713 9.78234C15.8847 9.91293 16.678 10.0819 17.3113 10.443C18.1527 10.9228 18.6667 11.7769 18.6667 12.7889C18.6667 13.8211 18.0633 14.6047 17.396 15.0796C16.9712 15.377 16.4981 15.5908 16 15.7103V16.3807C16 16.6586 15.8946 16.925 15.7071 17.1215C15.5196 17.3179 15.2652 17.4283 15 17.4283C14.7348 17.4283 14.4804 17.3179 14.2929 17.1215C14.1054 16.925 14 16.6586 14 16.3807V15.7396C13.2067 15.5922 12.372 15.2787 11.7253 14.7612C11.514 14.5932 11.3751 14.3441 11.3391 14.0688C11.3031 13.7935 11.373 13.5145 11.5333 13.2931C11.6937 13.0718 11.9314 12.9263 12.1942 12.8885C12.457 12.8508 12.7234 12.924 12.9347 13.092C13.5133 13.5327 14.2973 13.7366 15 13.7366C15.4773 13.7366 15.946 13.5795 16.2707 13.3476C16.6033 13.1109 16.6667 12.8965 16.6667 12.7889C16.6667 12.5368 16.5627 12.4013 16.3553 12.2833C15.9447 12.0493 15.462 11.9522 14.998 11.8593L14.7287 11.8042C14.116 11.6736 13.322 11.5046 12.6887 11.1435C11.8473 10.6637 11.3333 9.80957 11.3333 8.79761C11.3333 7.76539 11.9367 6.9818 12.604 6.50689C13.0288 6.20947 13.5019 5.99575 14 5.87625V5.20649C14 4.92865 14.1054 4.6622 14.2929 4.46574C14.4804 4.26928 14.7348 4.15891 15 4.15891ZM23.6667 9.39682C23.313 9.39682 22.9739 9.54399 22.7239 9.80593C22.4738 10.0679 22.3333 10.4232 22.3333 10.7936C22.3333 11.1641 22.4738 11.5193 22.7239 11.7813C22.9739 12.0432 23.313 12.1904 23.6667 12.1904H24.3333C24.687 12.1904 25.0261 12.0432 25.2761 11.7813C25.5262 11.5193 25.6667 11.1641 25.6667 10.7936C25.6667 10.4232 25.5262 10.0679 25.2761 9.80593C25.0261 9.54399 24.687 9.39682 24.3333 9.39682H23.6667ZM4.33333 10.7936C4.33333 10.4232 4.47381 10.0679 4.72386 9.80593C4.97391 9.54399 5.31305 9.39682 5.66667 9.39682H6.33333C6.68696 9.39682 7.02609 9.54399 7.27614 9.80593C7.52619 10.0679 7.66667 10.4232 7.66667 10.7936C7.66667 11.1641 7.52619 11.5193 7.27614 11.7813C7.02609 12.0432 6.68696 12.1904 6.33333 12.1904H5.66667C5.31305 12.1904 4.97391 12.0432 4.72386 11.7813C4.47381 11.5193 4.33333 11.1641 4.33333 10.7936ZM6.75667 28.0578C6.81112 27.9326 6.88858 27.8199 6.98462 27.726C7.08066 27.6322 7.1934 27.5591 7.31641 27.5109C7.43942 27.4627 7.57028 27.4404 7.70153 27.4452C7.83277 27.45 7.96183 27.4818 8.08133 27.5389C8.34933 27.6667 8.65267 27.747 8.98133 27.7645C10.3913 27.8392 12.3747 27.9048 15 27.9048C17.6253 27.9048 19.6093 27.8392 21.0193 27.7645C21.348 27.747 21.6507 27.6667 21.9193 27.5389C22.1599 27.4287 22.4323 27.422 22.6775 27.5204C22.9228 27.6188 23.1212 27.8143 23.23 28.0646C23.3389 28.315 23.3493 28.6002 23.2591 28.8585C23.1689 29.1169 22.9853 29.3277 22.748 29.4455C22.2352 29.689 21.6831 29.8289 21.1207 29.8575C19.674 29.9344 17.6573 30 15.0007 30C12.3433 30 10.326 29.9337 8.88067 29.8568C8.3181 29.8285 7.76572 29.6889 7.25267 29.4455C7.1331 29.3885 7.02543 29.3074 6.93579 29.2068C6.84615 29.1062 6.77631 28.9881 6.73025 28.8593C6.68419 28.7304 6.66281 28.5933 6.66735 28.4558C6.67188 28.3183 6.70223 28.183 6.75667 28.0578ZM3.828 23.4086C3.97234 23.1757 4.19906 23.0123 4.45834 22.9544C4.71761 22.8965 4.98821 22.9489 5.21067 23.0999C5.57443 23.3434 5.99281 23.4826 6.424 23.5036C8.26333 23.609 11.0767 23.7131 15 23.7131C18.9233 23.7131 21.7367 23.609 23.576 23.5036C24.0072 23.4826 24.4256 23.3434 24.7893 23.0999C25.0118 22.9527 25.2807 22.9033 25.5378 22.9624C25.7948 23.0216 26.0192 23.1844 26.1624 23.4157C26.3055 23.647 26.3559 23.9281 26.3025 24.1981C26.2492 24.468 26.0964 24.705 25.8773 24.8578C25.2208 25.3003 24.465 25.5548 23.6853 25.596C21.8073 25.7035 18.9573 25.809 15 25.809C11.0427 25.809 8.19333 25.7035 6.31467 25.596C5.53498 25.5548 4.7792 25.3003 4.12267 24.8578C4.01248 24.7829 3.91744 24.686 3.843 24.5727C3.76855 24.4593 3.71615 24.3317 3.68879 24.1971C3.66143 24.0626 3.65964 23.9237 3.68352 23.7884C3.70741 23.6531 3.7565 23.524 3.828 23.4086Z" fill="white"/>
</svg>
